<?xml version="1.0" standalone="no"?>
<!DOCTYPE svg PUBLIC "-//W3C//DTD SVG 20010904//EN"
 "http://www.w3.org/TR/2001/REC-SVG-20010904/DTD/svg10.dtd">
<svg version="1.0" xmlns="http://www.w3.org/2000/svg"
 width="700.000000pt" height="700.000000pt" viewBox="0 0 700.000000 700.000000"
 preserveAspectRatio="xMidYMid meet">
<metadata>
Created by potrace 1.11, written by Peter Selinger 2001-2013
</metadata>
<g transform="translate(0.000000,700.000000) scale(0.100000,-0.100000)"
fill="#000000" stroke="none">
<path d="M1702 6985 c-134 -41 -224 -125 -273 -254 -16 -44 -22 -84 -24 -186
-2 -71 -4 -132 -4 -135 -1 -3 -126 -5 -278 -5 -295 1 -352 -4 -441 -35 -177
-62 -324 -239 -350 -420 -3 -25 -6 -819 -6 -1765 l0 -1720 23 -75 c30 -98 69
-161 145 -235 65 -63 128 -102 211 -128 71 -23 110 -26 287 -27 l156 0 0 -202
c0 -112 1 -209 1 -215 1 -10 59 -13 256 -13 l255 0 1 48 c0 26 0 122 0 215 l0
167 382 -2 382 -3 -1 -212 0 -213 73 0 73 0 1 -87 c1 -101 2 -116 13 -198 9
-66 9 -63 31 -155 41 -172 142 -381 256 -531 241 -318 581 -520 981 -582 127
-20 367 -14 499 12 474 95 862 400 1067 841 63 137 103 272 118 399 3 31 9 61
12 66 4 6 7 397 8 870 l1 860 197 260 c108 143 205 271 216 285 18 24 211 279
250 330 362 476 403 540 436 670 26 101 21 247 -10 345 -73 229 -253 395 -487
449 -78 19 -231 14 -313 -8 -135 -38 -284 -145 -361 -261 -20 -30 -37 -55 -39
-55 -2 0 -19 24 -38 53 -72 106 -180 193 -298 240 -89 35 -159 46 -265 43
-459 -13 -761 -503 -568 -921 31 -67 120 -199 195 -290 9 -11 90 -118 180
-237 90 -119 251 -332 358 -473 107 -141 202 -266 210 -279 23 -33 73 -99 93
-121 17 -18 18 -67 17 -870 -1 -505 -5 -871 -11 -900 -22 -111 -42 -193 -61
-245 -21 -60 -79 -192 -88 -200 -3 -3 -14 -21 -24 -40 -29 -55 -118 -169 -179
-231 -244 -249 -557 -380 -908 -380 -66 0 -123 2 -127 4 -4 3 -32 8 -62 11
-234 28 -501 162 -688 346 -248 243 -375 541 -386 901 l-3 79 74 0 73 0 0 215
0 215 158 1 c86 0 166 2 177 3 245 30 430 205 481 456 8 42 8 3431 0 3480 -35
197 -157 350 -336 423 -93 37 -123 40 -440 43 -157 1 -288 2 -292 3 -3 0 -7
53 -7 117 -1 64 -6 136 -11 161 -31 137 -135 247 -280 297 -58 20 -624 21
-688 1z"/>
</g>
</svg>
