<?xml version="1.0" encoding="iso-8859-1"?>
<!-- Generator: Adobe Illustrator 19.0.0, SVG Export Plug-In . SVG Version: 6.00 Build 0)  -->
<svg version="1.1" id="Layer_1" xmlns="http://www.w3.org/2000/svg" xmlns:xlink="http://www.w3.org/1999/xlink" x="0px" y="0px"
	 viewBox="0 0 512 512" style="enable-background:new 0 0 512 512;" xml:space="preserve">
<path style="fill:#ED2F49;" d="M297.404,512c-60.422,0-109.577-49.156-109.577-109.577v-35.818h16.605v35.818
	c0,51.265,41.707,92.971,92.971,92.971c24.797,0,48.042-9.671,65.451-27.231c17.371-17.524,26.939-40.871,26.939-65.741V268.14
	H406.4v134.283c0,29.278-11.277,56.777-31.753,77.432C354.097,500.584,326.664,512,297.404,512z"/>
<rect x="177.313" y="343.555" style="fill:#FEBB8E;" width="37.639" height="53.492"/>
<g>
	<rect x="83.902" y="343.555" style="fill:#F9F0B5;" width="37.639" height="53.492"/>
	<path style="fill:#F9F0B5;" d="M166.811,0h-34.776c-16.19,0-29.315,13.125-29.315,29.315v61.848h93.411V29.315
		C196.13,13.125,183.002,0,166.811,0z"/>
</g>
<path style="fill:#FEBB8E;" d="M275.149,83.403v242.439c0,22.019-17.845,39.853-39.853,39.853H196.13l-77.492-161.072L196.13,43.55
	h39.167C257.304,43.55,275.149,61.396,275.149,83.403z"/>
<g>
	<path style="fill:#FCD5A2;" d="M196.13,43.55v322.145H63.552c-22.019,0-39.853-17.834-39.853-39.853V83.403
		c0-22.008,17.834-39.853,39.853-39.853C63.552,43.55,196.13,43.55,196.13,43.55z"/>
	<path style="fill:#FCD5A2;" d="M235.296,76.761c3.663,0,6.642,2.98,6.642,6.642v68.636l-83.868,76.065l38.06-151.343H235.296z"/>
</g>
<path style="fill:#F9F0B5;" d="M63.553,76.761c-3.663,0-6.642,2.98-6.642,6.642v68.636l139.22,76.065V76.761H63.553z"/>
<path style="fill:#ED2F49;" d="M440.29,115.539c-2.377,0-4.707,0.178-6.984,0.515L398.33,298.583l80.267-106.093
	c6.089-8.047,9.703-18.071,9.703-28.94C488.301,137.034,466.806,115.539,440.29,115.539z"/>
<path style="fill:#FF455E;" d="M433.305,116.053c-15.267,2.256-28.047,11.799-34.974,24.99
	c-6.928-13.191-19.707-22.734-34.975-24.99c-2.277-0.337-4.607-0.515-6.984-0.515c-26.516,0-48.011,21.495-48.011,48.011
	c0,10.869,3.613,20.893,9.703,28.94l80.267,106.093l57.334-106.093c4.349-8.047,6.93-18.071,6.93-28.94
	C462.594,139.415,449.873,119.445,433.305,116.053z"/>
<path style="fill:#ED2F49;" d="M241.939,152.039v173.803c0,3.664-2.978,6.642-6.642,6.642H196.13l-53.824-90.223l53.824-90.223
	H241.939z"/>
<path style="fill:#FF455E;" d="M196.13,152.039v180.445H63.552c-0.232,0-0.454-0.011-0.675-0.033
	c-3.354-0.343-5.967-3.177-5.967-6.609V152.039H196.13z"/>
<g>
</g>
<g>
</g>
<g>
</g>
<g>
</g>
<g>
</g>
<g>
</g>
<g>
</g>
<g>
</g>
<g>
</g>
<g>
</g>
<g>
</g>
<g>
</g>
<g>
</g>
<g>
</g>
<g>
</g>
</svg>
